<?xml version="1.0" encoding="UTF-8" standalone="no"?>
<svg
   xmlns:dc="http://purl.org/dc/elements/1.1/"
   xmlns:cc="http://creativecommons.org/ns#"
   xmlns:rdf="http://www.w3.org/1999/02/22-rdf-syntax-ns#"
   xmlns:svg="http://www.w3.org/2000/svg"
   xmlns="http://www.w3.org/2000/svg"
   xmlns:sodipodi="http://sodipodi.sourceforge.net/DTD/sodipodi-0.dtd"
   xmlns:inkscape="http://www.inkscape.org/namespaces/inkscape"
   viewBox="0 0 25.047021 25.498126"
   version="1.1"
   id="svg48"
   sodipodi:docname="jutge.svg"
   width="6.6270242mm"
   height="6.7463789mm"
   inkscape:version="0.92.3 (2405546, 2018-03-11)">
  <metadata
     id="metadata54">
    <rdf:RDF>
      <cc:Work
         rdf:about="">
        <dc:format>image/svg+xml</dc:format>
        <dc:type
           rdf:resource="http://purl.org/dc/dcmitype/StillImage" />
        <dc:title />
      </cc:Work>
    </rdf:RDF>
  </metadata>
  <defs
     id="defs52">
    <filter
       style="color-interpolation-filters:sRGB"
       id="filter5052"
       inkscape:label="filter0" />
  </defs>
  <sodipodi:namedview
     pagecolor="#ffffff"
     bordercolor="#666666"
     borderopacity="1"
     objecttolerance="10"
     gridtolerance="10"
     guidetolerance="10"
     inkscape:pageopacity="0"
     inkscape:pageshadow="2"
     inkscape:window-width="1920"
     inkscape:window-height="1051"
     id="namedview50"
     showgrid="false"
     units="mm"
     fit-margin-top="0"
     fit-margin-left="0"
     fit-margin-right="0"
     fit-margin-bottom="0"
     inkscape:pagecheckerboard="true"
     inkscape:showpageshadow="false"
     inkscape:zoom="16"
     inkscape:cx="15.384279"
     inkscape:cy="17.083306"
     inkscape:window-x="-9"
     inkscape:window-y="-9"
     inkscape:window-maximized="1"
     inkscape:current-layer="layer3"
     inkscape:snap-global="true" />
  <g
     inkscape:groupmode="layer"
     id="layer2"
     inkscape:label="jutge"
     style="display:inline">
    <g
       id="g499">
      <path
         id="path4"
         d="m 2.2009738,0.9782074 c 0.508766,-1.16194876 2.2538878,-0.89038216 3.4355378,-0.96606466 4.9290134,0.080135 9.8580264,0.00891 14.7870384,0 0.946415,-0.084586 1.860005,0.2760184 2.286712,0.97942046 0.426707,1.3489288 0.03282,2.8136075 0.492354,4.131373 0.754944,0.4184796 1.695887,0.8770264 1.734181,1.7184377 0.158647,0.7790843 -0.700237,1.3400251 -1.132414,1.9588405 1.077708,0.703402 1.477063,1.7674086 0.776826,2.7824446 0.04377,-0.516421 0.08753,-1.037295 0.136757,-1.553717 -0.404818,-0.4006721 -0.804171,-0.7968922 -1.203526,-1.1975641 -0.350118,-0.013356 -1.050355,-0.035615 -1.400474,-0.044519 -0.344647,0.6855942 -1.126943,1.3979001 -0.689295,2.1769841 0.289942,0.925997 1.63571,0.979421 2.511007,1.362285 -0.492355,-0.07123 -1.482535,-0.20924 -1.974889,-0.280471 -0.984708,-1.032842 -0.957355,-2.3060892 0,-3.3567401 C 21.096435,7.780727 21.134728,6.681105 21.375436,5.6037426 19.706901,4.7712354 18.093074,3.8274303 16.971601,2.4963089 c 0.995649,0.8414112 2.046005,1.6427551 3.194831,2.3461569 0.749473,0.351701 1.591946,1.0016799 2.3633,0.298278 0.744002,-1.0551027 0.153177,-2.3283493 0.125825,-3.4680384 0.04923,-0.9304492 -1.017531,-1.42461136 -1.996769,-1.58933216 -3.81848,0.026712 -7.636961,0.066779 -11.4499714,0.089038 -1.181651,-0.031164 -2.363301,-0.057875 -3.544952,-0.062327 C 4.6135096,0.19912224 3.3771533,0.09672824 2.5292099,0.6977365 2.0204439,2.122348 2.1900325,3.6315456 2.0915617,5.0962242 2.6714455,5.4167617 3.2513294,5.7328475 3.8312136,6.053385 5.1605696,5.7773665 6.4953966,5.5058 7.8138116,5.1941663 9.5315806,4.7534272 11.243879,4.3126881 12.923354,3.7784587 14.017476,3.4044983 15.084243,2.9771148 16.129127,2.5185679 12.491178,4.5130246 8.0709296,5.1674553 3.9296836,6.1602314 3.7874486,7.3978626 3.4920359,8.6622052 1.8070904,9.174175 c 2.3906532,-0.845863 2.0241232,1.500294 1.6302395,2.519781 -1.3785917,0.543134 -3.66530358,0.841412 -3.17294928,2.555397 0.1312944,0.200337 0.3938834,0.609912 0.5197071,0.810248 -1.3840623,-0.743469 -0.7166487,-2.199244 0.31729498,-2.88929 C -0.71485728,10.830286 1.3202068,8.9426756 0.13308612,7.4468337 -0.39756228,6.3961826 0.85520562,5.4657334 1.9165025,5.0650614 c 0.114882,-1.3622847 0,-2.737925 0.2844713,-4.086854 z"
         inkscape:connector-curvature="0"
         style="fill:#1a1a1a;stroke-width:0.49350414" />
      <path
         id="path6"
         d="M 2.5292099,0.697737 C 3.3771533,0.09672904 4.6135096,0.19912304 5.6638646,0.11008484 c 0.26806,0.3338932 0.530649,0.66778656 0.798708,1.00167986 -0.229765,0.6544309 -0.45406,1.3133137 -0.683825,1.9721964 0.350119,0.1068459 0.700237,0.2092398 1.050356,0.3160857 -0.492354,0.8236035 0.147706,1.3622847 0.984708,1.79412 C 6.4953966,5.5058005 5.1605696,5.777367 3.8312136,6.0533855 3.2513294,5.732848 2.6714455,5.4167622 2.0915617,5.0962247 2.1900325,3.6315461 2.0204439,2.1223485 2.5292099,0.697737 Z"
         inkscape:connector-curvature="0"
         style="fill:#d5d5d5;stroke-width:0.49350414" />
      <path
         id="path8"
         d="m 5.6638646,0.11008484 c 1.181651,0.00445 2.363301,0.031163 3.544951,0.062326 0.8534144,0.2359513 1.6958864,0.49416216 2.5383594,0.74792096 -0.153177,0.6277195 -0.306354,1.2554389 -0.459531,1.8831583 0.54159,0.3249895 1.08865,0.6499789 1.63571,0.9749684 C 11.243879,4.3126883 9.5315806,4.7534274 7.8138116,5.1941665 6.9768096,4.7623312 6.3367496,4.22365 6.8291036,3.4000465 6.4789846,3.2932006 6.1288666,3.1908067 5.7787476,3.0839608 6.0085126,2.4250784 6.2328076,1.7661956 6.4625726,1.1117647 6.1945136,0.7778714 5.9319246,0.44397804 5.6638646,0.11008484 Z"
         inkscape:connector-curvature="0"
         style="fill:#e4e4e4;stroke-width:0.49350414" />
      <path
         id="path10"
         d="m 9.2088156,0.17241154 c 3.8130094,-0.02226 7.6314914,-0.062326 11.4499704,-0.089038 C 20.915905,1.6816097 20.77367,3.2976532 20.166432,4.8424662 19.017606,4.1390644 17.96725,3.3377205 16.971601,2.4963093 16.900481,2.4295303 16.763718,2.2959734 16.69807,2.2336466 16.555835,2.3048776 16.271364,2.4473384 16.129127,2.5185688 15.084243,2.9771157 14.017476,3.4044992 12.923354,3.7784596 12.376294,3.4534701 11.829234,3.1284807 11.287644,2.8034912 11.440821,2.1757718 11.593998,1.5480524 11.747175,0.920333 10.904702,0.6665741 10.06223,0.40836324 9.2088156,0.17241154 Z"
         inkscape:connector-curvature="0"
         style="fill:#efefef;stroke-width:0.49350414" />
      <path
         id="path12"
         d="m 20.658786,0.08337324 c 0.979238,0.1647208 2.046005,0.65888296 1.99677,1.58933216 0.02735,1.1396891 0.618178,2.4129357 -0.125826,3.4680384 -0.771352,0.7034019 -1.613825,0.053423 -2.363298,-0.298278 0.607238,-1.544813 0.749473,-3.1608565 0.492354,-4.75909256 z"
         inkscape:connector-curvature="0"
         style="fill:#dcdcdc;stroke-width:0.49350414" />
      <path
         sodipodi:nodetypes="cccccccccccccccccc"
         id="path14"
         d="M 16.129127,2.5185684 16.69807,2.2336462 c 0.06565,0.062326 0.202413,0.1958841 0.273531,0.2626627 1.121473,1.3311214 2.7353,2.2749265 4.403835,3.1074337 -0.240708,1.0773624 -0.279001,2.1769844 0.585353,3.0851741 -0.957355,1.0506509 -0.984708,2.3238983 0,3.3567403 -0.235236,0.169173 -0.05942,0.633505 -0.294657,0.802677 -0.443118,1.357832 0.03861,1.900576 1.247616,2.719727 -0.103947,1.055103 -0.384016,2.674655 -1.521901,3.36025 -3.63795,0.507517 -5.374907,0.634414 -9.018329,1.110768 -2.237477,0.195884 -6.4580054,-0.848111 -8.7009524,-0.803584 -1.3184149,-0.99723 -2.0077108,-2.381774 -1.7998279,-3.86426 0.6017662,-0.07123 0.5958626,-0.90481 1.192158,-1.002752 -0.0055,-0.74347 0.6623799,-0.729041 0.6295499,-1.47251 C 3.6288006,12.597695 3.4975065,11.992234 3.4373299,11.693956 3.8312136,10.674469 4.1977436,8.328312 1.8070904,9.174175 3.4920359,8.6622052 3.7874486,7.3978626 3.9296836,6.1602314 8.0709296,5.1674553 12.491178,4.5130246 16.129127,2.5185684 Z"
         inkscape:connector-curvature="0"
         style="fill:#eddccb;stroke-width:0.49350414" />
      <path
         id="path16"
         d="M 0.28626303,7.4779971 C 0.00179163,6.4585095 0.98102943,5.7417519 1.8180317,5.1451958 2.4416803,5.4701854 3.0707996,5.786271 3.6999186,6.1068085 3.5303301,6.9615755 3.7108596,8.3461198 2.3432095,8.5687151 1.358501,8.9204161 0.96461773,7.8252462 0.28626303,7.4779971 Z"
         inkscape:connector-curvature="0"
         style="fill:#d7d7d7;stroke-width:0.49350414" />
      <path
         id="path18"
         d="m 23.826265,8.6577534 c -2.806419,0.796892 -3.550421,-3.441327 -0.645532,-3.2409911 1.832652,0.3695087 1.827182,2.2971861 0.645532,3.2409911 z"
         inkscape:connector-curvature="0"
         style="fill:#d3d4d6;stroke-width:0.49350414" />
      <path
         sodipodi:nodetypes="csccccsc"
         id="path20"
         d="m 8.9079316,11.965524 c -0.612707,-0.754599 -1.031186,-1.795234 -1.023686,-2.7796627 0.0038,-0.4922144 0.242582,-1.1807714 0.242582,-1.1807714 0,0 -0.637361,-0.5476344 -0.696079,-1.4296744 l 1.169943,0.8456481 c 0,0 0.543161,-0.5451874 0.816007,-0.6776317 0.6181784,0.7545989 1.0339444,1.7918942 1.0236864,2.7746535 -0.01026,0.9827596 -0.4465384,1.9109836 -1.5324534,2.4474386 z"
         inkscape:connector-curvature="0"
         style="fill:#010402;stroke-width:0.49350414" />
      <path
         sodipodi:nodetypes="cccsscsc"
         id="path22"
         d="m 15.013125,6.7523357 c 0.262589,0.1279924 0.812608,0.6300829 0.812608,0.6300829 0,0 0,0 1.160559,-0.7227473 -0.159327,1.2230256 -0.752448,1.2778879 -0.687442,1.3910986 0.260025,0.4528429 0.27955,0.7689219 0.280234,1.290352 0.0014,1.0428601 -0.510136,2.0946241 -1.511259,2.6422091 -0.708444,-0.750147 -1.05993,-1.676144 -1.065399,-2.6054809 -0.0055,-0.9293364 0.335076,-1.8620117 1.010699,-2.6255144 z"
         inkscape:connector-curvature="0"
         style="fill:#010203;stroke-width:0.49350414" />
      <path
         id="path24"
         d="m 22.113966,8.7868588 c 0.350119,0.00891 1.050356,0.031163 1.400474,0.044519 0.399355,0.4006719 0.798708,0.796892 1.203533,1.1975642 -0.04923,0.516422 -0.093,1.037296 -0.136757,1.553717 -0.02735,0.307181 -0.0383,0.614363 -0.06565,0.921545 -0.207883,0.988324 0.306353,2.577657 -1.373122,2.786897 -1.690415,-0.03562 -1.706828,-1.58488 -2.117123,-2.564301 0.235236,-0.169172 0.700237,-0.51197 0.935473,-0.681143 0.492354,0.07123 1.482534,0.20924 1.974888,0.280471 -0.875296,-0.382864 -2.221065,-0.436288 -2.511006,-1.362285 -0.437649,-0.779084 0.344647,-1.4913902 0.689295,-2.1769844 z"
         inkscape:connector-curvature="0"
         style="fill:#d9d9d8;stroke-width:0.49350414" />
      <path
         id="path26"
         d="M 0.60355803,10.042298 C 0.99197073,9.0584253 2.4197979,9.5303279 3.3115061,9.2008865 3.7491546,10.14024 3.8038606,11.636082 2.3322682,11.956619 0.94820593,12.628858 0.14949793,10.897064 0.60355803,10.042298 Z"
         inkscape:connector-curvature="0"
         style="fill:#dbdbdb;stroke-width:0.49350414" />
      <path
         id="path28"
         d="m 0.26438063,14.249353 c -0.4923543,-1.713985 1.79435757,-2.012263 3.17294927,-2.555397 0.060176,0.298278 0.1914707,0.903739 0.2571187,1.202017 -0.098472,0.609911 -0.142236,1.224275 -0.2078833,1.838639 -0.754943,0.200335 -1.5208274,0.414027 -2.325006,0.365056 l -0.37747157,-0.04007 c -0.125824,-0.200337 -0.3884127,-0.609912 -0.5197071,-0.810248 z"
         inkscape:connector-curvature="0"
         style="fill:#d2d7da;stroke-width:0.49350414" />
      <path
         sodipodi:nodetypes="ccsczcccccccccccccc"
         id="path30"
         d="m 3.4865653,14.734648 c 0.065648,-0.614365 0.1094117,-1.22873 0.2078833,-1.838642 0.03282,0.743468 0.1042779,1.876241 0.011266,1.991791 -0.1338647,0.166301 -1.2312076,0.41226 -1.8329738,0.483501 -0.2078829,1.48249 1.0981642,3.014096 2.1420078,3.406201 1.0438436,0.392105 4.1546554,0.551437 6.3921314,0.35552 l -0.09847,0.405126 c 0.04377,0.454095 0.131298,1.357831 0.175059,1.811926 3.155055,-0.432716 -0.213353,0.155819 -0.289941,0.204792 -0.0547,-0.649978 -0.125826,-1.299955 -0.213354,-1.94548 L 9.936404,19.34672 C 8.415576,19.38682 6.916631,19.622788 5.45598,19.96116 4.892508,21.764193 4.608036,24.052479 6.697807,25.294528 4.897978,25.258938 3.0981503,25.258968 1.2983222,25.348038 2.1080846,23.721461 0.65600251,20.786864 2.6841078,18.50167 2.4117511,18.157821 1.4788543,16.893858 1.6703254,15.415821 1.4515013,15.326781 1.0083825,15.148716 0.78408773,15.059682 l 0.37747157,0.04006 c 0.8041786,0.04897 1.570063,-0.164747 2.325006,-0.365094 z"
         inkscape:connector-curvature="0"
         style="fill:#000000;stroke-width:0.49350414" />
      <path
         id="path34"
         d="m 7.1792216,14.787948 c 3.2276554,1.388996 7.1774314,1.255438 10.5144994,0.178077 -2.516479,2.528685 -8.1511984,2.47081 -10.5144994,-0.178077 z"
         inkscape:connector-curvature="0"
         style="fill:#010100;stroke-width:0.49350414" />
      <path
         id="path38"
         d="m 5.4559826,19.961154 c 1.46065,-0.338346 2.959595,-0.574297 4.480423,-0.614363 l 0.04377,0.262662 c -0.782297,0.173625 -1.635711,0.231499 -2.341419,0.578749 -0.300883,1.691725 -0.722119,3.721797 0.782297,5.133052 -0.426707,-0.0089 -1.291063,-0.0178 -1.72324,-0.02671 -2.08977,-1.242084 -1.805299,-3.530366 -1.241827,-5.333389 z"
         inkscape:connector-curvature="0"
         style="fill:#242424;stroke-width:0.49350414" />
      <path
         sodipodi:nodetypes="cccccc"
         id="path40"
         d="m 10.308406,19.538222 c 1.307475,-0.04453 2.614948,-0.102397 3.922423,-0.164721 0.114879,2.087947 1.006591,4.046788 1.838122,5.996725 -2.390654,0.08458 -4.781307,0.07569 -7.1719594,-0.0134 0.69975,-2.079432 1.083179,-5.74744 1.083179,-5.74744 z"
         inkscape:connector-curvature="0"
         style="fill:#fefefe;stroke-width:0.49350414" />
      <path
         sodipodi:nodetypes="ccscccccc"
         id="path46"
         d="m 17.983662,19.266656 c 1.389532,-0.0045 2.618943,0.06558 3.888947,-0.606467 0,0 0.50368,0.241771 1.017421,1.174522 0.782877,1.421396 0.196476,2.886212 0.76665,5.495443 -1.865476,-0.08904 -3.725481,-0.09349 -5.590956,-0.08458 0.508766,-0.20924 1.012061,-0.427384 1.515356,-0.64998 0.03283,-1.491389 0.147707,-2.982779 0.35559,-4.465266 -0.651002,-0.293826 -1.296533,-0.587651 -1.953005,-0.86367 z"
         inkscape:connector-curvature="0"
         style="fill:#000000;stroke-width:0.49350414" />
      <path
         sodipodi:nodetypes="ccccccccccccccc"
         id="path42"
         d="m 14.230829,19.373501 0.426706,-0.0134 c 0.935473,0.235952 1.849065,0.507518 2.768125,0.774633 0.716649,1.749601 0.568943,3.606047 -0.711178,5.155313 0.339178,-0.0089 1.012062,-0.03116 1.351239,-0.04453 1.865475,-0.0089 3.72548,-0.0045 5.590956,0.08458 -7.440019,0.253759 -14.9128624,0.18698 -22.3583526,0.0178 1.7998281,-0.08904 3.5996562,-0.08904 5.3994842,-0.05342 0.432178,0.0089 1.296533,0.0178 1.72324,0.02671 -1.504416,-1.411256 -1.083179,-3.441328 -0.782296,-5.133053 0.705708,-0.34725 1.559121,-0.405124 2.341418,-0.578748 0.5218444,2.052527 -0.4683453,4.001719 -1.083179,5.747416 2.3906524,0.08904 4.7813054,0.09794 7.1719594,0.0134 -0.831531,-1.949937 -1.72324,-3.908778 -1.838122,-5.996725 z"
         inkscape:connector-curvature="0"
         style="fill:#464847;stroke-width:0.49350414" />
      <path
         id="path44"
         d="m 14.657535,19.360145 c 1.105062,-0.04896 2.215595,-0.102397 3.326127,-0.09349 0.656472,0.276019 1.302003,0.569844 1.953005,0.86367 -0.207883,1.482487 -0.322765,2.973877 -0.35559,4.465266 -0.503295,0.222596 -1.00659,0.44074 -1.515356,0.64998 -0.339177,0.0134 -1.012061,0.03562 -1.351239,0.04453 1.280121,-1.549266 1.427827,-3.405712 0.711178,-5.155313 -0.91906,-0.267115 -1.832652,-0.538681 -2.768125,-0.774633 z"
         inkscape:connector-curvature="0"
         style="fill:#212121;stroke-width:0.49350414" />
      <path
         sodipodi:nodetypes="cccczccccczccc"
         id="path32"
         d="m 21.025316,12.7268 c 0.410296,0.979421 0.426708,2.528685 2.117124,2.564301 1.679475,-0.20924 1.165238,-1.798573 1.373121,-2.786897 0.452661,1.652862 0.273531,2.604369 -1.236357,3.205376 -0.06565,1.264342 -0.544781,2.763627 -1.287877,3.128306 -0.743096,0.364679 -2.618133,0.42431 -4.007665,0.42877 -1.110532,-0.0089 -2.221065,0.04452 -3.326127,0.09349 l -0.426706,0.0134 c -1.307475,0.06233 -2.614948,0.120198 -3.922423,0.16472 l 0.09847,-0.405124 c 3.823953,0.240335 9.945469,0.06985 10.979609,-0.51419 1.03414,-0.584037 1.312835,-1.774773 1.416776,-2.829876 -0.678673,-0.178336 -1.911705,-1.549719 -1.777946,-3.062232 z"
         inkscape:connector-curvature="0"
         style="fill:#1a1a1a;stroke-width:0.49350414" />
      <circle
         r="0.29831067"
         cy="7.9198923"
         cx="9.1125975"
         id="path913"
         style="opacity:1;fill:#ffffff;fill-opacity:1;stroke:none;stroke-width:0.75590551;stroke-linecap:round;stroke-miterlimit:4;stroke-dasharray:none;stroke-opacity:1" />
      <circle
         r="0.29831067"
         cy="7.8544426"
         cx="15.186389"
         id="path913-0"
         style="opacity:1;fill:#ffffff;fill-opacity:1;stroke:none;stroke-width:0.75590551;stroke-linecap:round;stroke-miterlimit:4;stroke-dasharray:none;stroke-opacity:1" />
    </g>
  </g>
  <g
     inkscape:groupmode="layer"
     id="layer1"
     inkscape:label="hat"
     style="display:inline">
    <path
       style="fill:#1a1a1a;fill-opacity:1;stroke:none;stroke-width:1px;stroke-linecap:butt;stroke-linejoin:miter;stroke-opacity:1"
       d="m 2.6640625,-7.1328127 c 4.925928,0.9608284 5.8385765,1.5698862 8.5781245,2.898588 -0.530691,1.5324269 -1.121992,2.4058303 -1.484408,4.41982657 3.591717,3.24705723 8.548254,3.22096373 13.234375,2.18617863 0.22381,-1.3181924 0.20814,-1.55232521 0.292968,-3.3318909 2.785209,-0.051922 6.953868,-0.20225 10.238282,0.5147992 C 28.303456,-3.3936111 24.554611,-5.5949787 19.585904,-6.725438 14.084252,-7.9771508 3.866657,-7.6147855 2.6640625,-7.1328127 Z"
       id="path5296"
       inkscape:connector-curvature="0"
       sodipodi:nodetypes="ccccccac" />
    <g
       id="g5079"
       transform="translate(18.710262,-0.2565618)">
      <path
         sodipodi:nodetypes="ccccc"
         inkscape:connector-curvature="0"
         id="path5054"
         d="m -6.75,-4.564375 c 0,0 -1.346427,1.6968957 -1.875,5.06249998 C -5.5353922,2.6129808 -0.85123509,3.4550612 4,2.498125 c 0.448169,-2.65287857 -0.0625,-5 -0.0625,-5 z"
         style="fill:#1a1a1a;fill-opacity:1;stroke:none;stroke-width:1px;stroke-linecap:butt;stroke-linejoin:miter;stroke-opacity:1" />
      <path
         sodipodi:nodetypes="ccccc"
         inkscape:connector-curvature="0"
         id="path544"
         d="m -15.6875,-6.876875 c 8.874038,1.4469552 15.43750001,6.25 15.43750001,6.25 0,0 7.81369699,-1.0660722 14.12499999,0.125 -7.876197,-4.7464278 -13.68749999,-5.75 -13.68749999,-5.75 -9.35416701,-1.3125 -15.87500001,-0.625 -15.87500001,-0.625 z"
         style="fill:#333333;fill-opacity:1;stroke:none;stroke-width:1px;stroke-linecap:butt;stroke-linejoin:miter;stroke-opacity:1" />
      <path
         sodipodi:nodetypes="ccccc"
         inkscape:connector-curvature="0"
         id="path5056"
         d="m -7.5,-3.314375 c 4.8970339,1.76715 7.4517461,5.4366815 11.5,4.5625 v 1.25 C -3.5691756,2.4419113 -8.625,0.49812498 -8.625,0.49812498 -8.5758375,-1.4172733 -7.5,-3.314375 -7.5,-3.314375 Z"
         style="fill:#232323;fill-opacity:1;stroke:none;stroke-width:1px;stroke-linecap:butt;stroke-linejoin:miter;stroke-opacity:1" />
      <path
         style="fill:#333333;fill-opacity:1;stroke:none;stroke-width:1px;stroke-linecap:butt;stroke-linejoin:miter;stroke-opacity:1"
         d="m -8,-2.251875 c 2.2095339,-0.23285 7.3892461,5.4366815 12,4.75 C -3.8267461,4.1864435 -5.9864084,2.2139594 -8.625,0.49812498 -8.4019838,-1.0928149 -8,-2.251875 -8,-2.251875 Z"
         id="path5073"
         inkscape:connector-curvature="0"
         sodipodi:nodetypes="cccc" />
    </g>
  </g>
  <g
     inkscape:groupmode="layer"
     id="layer3"
     inkscape:label="book"
     style="display:inline">
    <g
       id="g5275"
       transform="matrix(1.0321781,0,0,1.1042771,-0.37810172,-2.4920611)"
       style="fill:#000000">
      <path
         style="fill:#000000;fill-opacity:1;stroke:none;stroke-width:1px;stroke-linecap:butt;stroke-linejoin:miter;stroke-opacity:1"
         d="m -2.821774,28.818031 c 7.5836355,-0.820267 12.6128658,-1.092516 12.6128658,-1.092516 0,0 0.6033922,0.862824 1.7482752,0.834979 1.163153,-0.02829 1.628449,-0.854989 1.628449,-0.854989 0,0 4.825436,-0.164128 13.308624,1.44914 -2.766298,-6.856372 -2.077909,-3.705095 -2.077909,-3.705095 l -26.5089979,0.430119 c 0,0 0.7178215,0.02134 -0.7113071,2.938362 z"
         id="path5257"
         inkscape:connector-curvature="0"
         sodipodi:nodetypes="ccsccccc" />
      <g
         id="g5273"
         style="fill:#000000">
        <path
           id="path5259"
           d="m 8.0820312,24.601562 -8.2460937,0.714844 c -0.16247209,0.286379 -0.28380899,0.492315 -0.50195312,0.861328 C 9.6067992,26.778857 9.5681085,24.119839 11.625,25.826172 c 1.866033,-1.185443 1.772107,-0.21956 12.089844,-0.06836 l -0.328125,-0.560546 z"
           style="fill:#000000;fill-opacity:1;stroke:none"
           inkscape:connector-curvature="0" />
        <path
           sodipodi:nodetypes="ccsccccc"
           inkscape:connector-curvature="0"
           id="path5261"
           d="M -1.875,28.123125 C 1.7704673,28.269479 10,27.060625 10,27.060625 c 0,0 1.072235,-0.768862 1.6875,-0.75 0.586766,0.01799 1.091966,0.525629 1.5625,0.8125 4.453004,0.589139 11.8125,0.9375 11.8125,0.9375 L 23.386374,25.19646 0.40586893,24.301853 c 0,0 -1.13253117,2.096448 -2.28086893,3.821272 z"
           style="fill:#000000;fill-opacity:1;stroke:none;stroke-width:1px;stroke-linecap:butt;stroke-linejoin:miter;stroke-opacity:1" />
        <path
           style="fill:#000000;fill-opacity:1;stroke:none;stroke-width:1px;stroke-linecap:butt;stroke-linejoin:miter;stroke-opacity:1"
           d="m -1.8308058,27.66889 c 2.65263529,-0.153586 6.386881,0.2518 13.4520148,-1.503141 1.734605,0.576591 4.467847,1.087409 13.441291,1.551126 l -2.803078,-4.34467 -22.80372774,1.978015 z"
           id="path5263"
           inkscape:connector-curvature="0"
           sodipodi:nodetypes="cccccc" />
        <path
           sodipodi:nodetypes="ccccscc"
           inkscape:connector-curvature="0"
           id="path5271"
           d="M -2.1104669,25.879669 C 9.868371,26.892604 9.4607985,24.031579 11.625,25.826933 c 1.945452,-1.235896 1.634153,-0.124461 13.349112,-0.04549 0,0 -0.05814,-0.848448 -2.299666,-3.713795 -5.968633,-2.001911 -9.69844,0.534572 -11.028699,0.551654 -1.221179,0.01568 -3.1180135,-2.241577 -10.0787476,-1.209026 -2.37750802,2.446607 -3.6774663,4.469393 -3.6774663,4.469393 z"
           style="fill:#000000;fill-opacity:1;stroke:none;stroke-width:1px;stroke-linecap:butt;stroke-linejoin:miter;stroke-opacity:1" />
      </g>
    </g>
    <g
       id="g5255">
      <path
         sodipodi:nodetypes="ccsccccc"
         inkscape:connector-curvature="0"
         id="path5095"
         d="m -2.6875,28.998125 c 7.5836355,-0.820267 12.5,-1.0625 12.5,-1.0625 0,0 0.962484,0.898713 1.8125,0.875 0.704681,-0.01966 1.5,-0.875 1.5,-0.875 0,0 6.102843,0.06712 13.375,1.3125 -0.980027,-2.554915 -3.3125,-6.0625 -3.3125,-6.0625 l -21.5,-0.1875 c 0,0 -2.50826348,2.39527 -4.375,6 z"
         style="fill:#502d16;fill-opacity:1;stroke:none;stroke-width:1px;stroke-linecap:butt;stroke-linejoin:miter;stroke-opacity:1" />
      <g
         id="g5050">
        <path
           inkscape:connector-curvature="0"
           style="fill:#000000;fill-opacity:1;stroke:none"
           d="m 8.0820312,24.601562 -8.2460937,0.714844 c -0.16247209,0.286379 -0.28380899,0.492315 -0.50195312,0.861328 C 9.6067992,26.778857 9.5681085,24.119839 11.625,25.826172 c 1.866033,-1.185443 1.772107,-0.21956 12.089844,-0.06836 l -0.328125,-0.560546 z"
           id="rect3977" />
        <path
           style="fill:#f4eed7;fill-opacity:1;stroke:none;stroke-width:1px;stroke-linecap:butt;stroke-linejoin:miter;stroke-opacity:1"
           d="M -1.875,28.123125 C 1.7704673,28.269479 10,27.060625 10,27.060625 c 0,0 1.072235,-0.768862 1.6875,-0.75 0.586766,0.01799 1.091966,0.525629 1.5625,0.8125 4.453004,0.589139 11.8125,0.9375 11.8125,0.9375 L 23.386374,25.19646 0.40586893,24.301853 c 0,0 -1.13253117,2.096448 -2.28086893,3.821272 z"
           id="path5098"
           inkscape:connector-curvature="0"
           sodipodi:nodetypes="ccsccccc" />
        <path
           sodipodi:nodetypes="cccccc"
           inkscape:connector-curvature="0"
           id="path3760"
           d="m -1.8308058,27.66889 c 2.65263529,-0.153586 6.386881,0.2518 13.4520148,-1.503141 1.734605,0.576591 4.467847,1.087409 13.441291,1.551126 l -2.803078,-4.34467 -22.80372774,1.978015 z"
           style="fill:#e3e2db;fill-opacity:1;stroke:none;stroke-width:1px;stroke-linecap:butt;stroke-linejoin:miter;stroke-opacity:1" />
        <path
           style="fill:#f4eed7;fill-opacity:1;stroke:none;stroke-width:1px;stroke-linecap:butt;stroke-linejoin:miter;stroke-opacity:1"
           d="m -1.7645146,27.284198 c 4.3663768,0.08284 9.5770146,-0.567323 13.4299176,-1.237976 3.115847,0.545653 7.312729,1.227178 13.352903,1.21967 L 22.546685,23.628329 0.29538351,22.910499 Z"
           id="path3762"
           inkscape:connector-curvature="0"
           sodipodi:nodetypes="cccccc" />
        <path
           sodipodi:nodetypes="ccccccc"
           inkscape:connector-curvature="0"
           id="path3764"
           d="m -1.9633883,26.875188 c 4.5842769,-0.149924 8.225071,-0.04887 13.6508883,-1.017005 4.481919,0.917162 8.91846,0.901597 13.286612,0.954505 0,0 -1.703369,-2.719195 -3.230774,-3.392655 C 18.733641,22.093004 11.624339,22.900865 11.624339,22.900865 L 2.5678617,22.156438 Z"
           style="fill:#e3e2db;fill-opacity:1;stroke:none;stroke-width:1px;stroke-linecap:butt;stroke-linejoin:miter;stroke-opacity:1" />
        <path
           sodipodi:nodetypes="ccccccccc"
           inkscape:connector-curvature="0"
           id="path3768"
           d="M -2.2316943,26.547142 C 11.009153,26.952472 9.925023,24.41262 11.188717,26.395013 l 0.927326,-0.0032 c 0.977707,-2.243881 4.125589,0.72516 12.951819,-0.11036 0,0 -0.257552,-0.605354 -2.49908,-3.470701 -5.968633,-2.001911 -10.900249,1.043332 -10.900249,1.043332 0,0 -3.0644932,-2.683228 -10.0252273,-1.650677 -2.377508,2.446607 -3.875,4.34375 -3.875,4.34375 z"
           style="fill:#f4eed7;fill-opacity:1;stroke:none;stroke-width:1px;stroke-linecap:butt;stroke-linejoin:miter;stroke-opacity:1" />
        <path
           style="fill:#e3e2db;fill-opacity:1;stroke:none;stroke-width:1px;stroke-linecap:butt;stroke-linejoin:miter;stroke-opacity:1"
           d="M -2.3383883,26.062688 C 9.6404496,27.075623 9.4607985,24.031579 11.625,25.826933 c 1.945452,-1.235896 1.634153,-0.124461 13.349112,-0.04549 0,0 -0.207996,-1.058558 -2.449524,-3.923905 -5.968633,-2.001911 -10.900249,1.043332 -10.900249,1.043332 0,0 -3.0644932,-2.683228 -10.0252273,-1.650677 -2.377508,2.446607 -3.9375,4.8125 -3.9375,4.8125 z"
           id="path3766"
           inkscape:connector-curvature="0"
           sodipodi:nodetypes="ccccccc" />
      </g>
    </g>
    <path
       style="fill:#000000;fill-opacity:1;stroke:none;stroke-width:1px;stroke-linecap:butt;stroke-linejoin:miter;stroke-opacity:1"
       d="m 11.64363,22.819812 c -0.06701,-0.01779 -0.08685,-0.02858 -0.08685,-0.02858 -0.17342,0.809946 -0.24487,2.09002 -0.03852,3.613817 0.107196,0.01702 -0.03272,0.0022 0.141289,0.0016 0.301131,-1.414649 0.208742,-2.676132 0.03665,-3.575757 z"
       id="path5311"
       inkscape:connector-curvature="0"
       sodipodi:nodetypes="cccccc" />
  </g>
</svg>
